<svg version="1.1" id="Capa_1" xmlns="http://www.w3.org/2000/svg" x="0" y="0" width="511.999" height="511.999" xml:space="preserve"><defs><linearGradient spreadMethod="pad" id="gradient" x1="8%" y1="0%" x2="0%" y2="99%"><stop offset="0%" stop-color="#44b64b"/><stop offset="100%" stop-color="#636ac3"/></linearGradient></defs><g fill="url(#gradient)"><path d="M55.071 147.892c-1.859-1.859-4.439-2.93-7.069-2.93s-5.21 1.07-7.07 2.93a10.033 10.033 0 00-2.93 7.07c0 2.64 1.06 5.21 2.93 7.07 1.86 1.859 4.44 2.93 7.07 2.93s5.2-1.07 7.069-2.93a10.06 10.06 0 002.931-7.07c0-2.63-1.07-5.21-2.931-7.07z"/><path d="M510.718 308.944l-56.475-100.529a75.567 75.567 0 005.745-28.953c0-38.514-28.805-70.406-65.998-75.319V64.004c0-35.289-28.709-63.999-63.998-63.999H63.998C28.709.006 0 28.715 0 64.004c0 5.522 4.478 10 10 10h27.999v34.999c0 5.522 4.478 10 10 10s10-4.478 10-10V74.004h217.995c5.522 0 10-4.478 10-10 0-24.261 19.738-43.999 43.999-43.999s43.999 19.737 43.999 43.999v40.139c-37.193 4.914-65.998 36.806-65.998 75.319a75.513 75.513 0 006.471 30.632l-57.013 98.748a10 10 0 00.767 11.139 9.993 9.993 0 0010.606 3.486l37.548-10.584 9.607 37.809a9.999 9.999 0 0018.322 2.589l39.691-67.802v162.516c0 17.033 6.701 32.52 17.59 43.999H101.998c-24.261 0-43.999-19.738-43.999-43.999V197.001c0-5.522-4.478-10-10-10s-10 4.478-10 10v250.994c0 35.289 28.709 63.998 63.999 63.998H437.99c35.289 0 63.999-28.709 63.999-63.998 0-5.522-4.478-10-10-10h-97.998V284.311l39.79 68.918a9.998 9.998 0 0018.352-2.537l9.607-37.809 37.547 10.584a9.995 9.995 0 0010.57-3.439 10.002 10.002 0 00.861-11.084zM266.781 54.004H21.146c4.539-19.461 22.029-33.999 42.853-33.999h219.585c-8.714 9.186-14.745 20.938-16.803 33.999zm214.062 403.991c-4.539 19.461-22.029 33.999-42.853 33.999-20.823 0-38.313-14.539-42.853-33.999h85.706zM329.358 322.136l-6.131-24.125a10 10 0 00-12.405-7.162l-23.756 6.696 39.49-68.398c10.875 12.554 25.773 21.523 42.682 24.864l-39.88 68.125zm54.633-86.675c-30.878 0-55.999-25.12-55.999-55.999 0-30.878 25.12-55.999 55.999-55.999 30.878 0 55.999 25.12 55.999 55.999s-25.121 55.999-55.999 55.999zm73.297 55.388a10.002 10.002 0 00-12.405 7.162l-6.078 23.921-39.3-68.069c17.073-3.556 32.059-12.859 42.846-25.784l39.087 69.578-24.15-6.808z"/><path d="M196.748 272.999h-86.753c-5.522 0-10 4.478-10 10s4.478 10 10 10h86.753c5.522 0 10-4.478 10-10s-4.478-10-10-10zm0 49.005h-86.753c-5.522 0-10 4.478-10 10s4.478 10 10 10h86.753c5.522 0 10-4.478 10-10s-4.478-10-10-10zM161.352 116.61h-51.357c-5.522 0-10 4.478-10 10s4.478 10 10 10h51.357c5.522 0 10-4.478 10-10s-4.478-10-10-10zm94.772 102.391H109.995c-5.522 0-10 4.478-10 10s4.478 10 10 10h146.129c5.522 0 10-4.478 10-10 0-5.523-4.478-10-10-10zm57.539 189.328h-47.552c-5.522 0-10 4.478-10 10s4.478 10 10 10h47.552c5.522 0 10-4.478 10-10s-4.478-10-10-10zm-95.979 0h-.154c-5.522 0-10 4.478-10 10s4.478 10 10 10h.154c5.522 0 10-4.478 10-10s-4.478-10-10-10z"/></g></svg>