<svg version="1.1" id="Layer_1" xmlns="http://www.w3.org/2000/svg" x="0" y="0" width="512" height="512" xml:space="preserve"><defs><linearGradient spreadMethod="pad" id="gradient" x1="8%" y1="0%" x2="0%" y2="99%"><stop offset="0%" stop-color="#44b64b"/><stop offset="100%" stop-color="#636ac3"/></linearGradient></defs><g fill="url(#gradient)"><path d="M481.5 398.995h-25.463V175.416a30.133 30.133 0 007.716-1.021c7.732-2.06 14.199-7.008 18.209-13.932 4.011-6.924 5.085-14.995 3.024-22.728-2.061-7.732-7.009-14.199-13.944-18.216L271.287 4.19c-9.323-5.524-20.927-5.587-30.289-.165l-200.052 115.5c-6.925 4.011-11.873 10.478-13.933 18.209-2.061 7.732-.987 15.803 3.023 22.728 5.539 9.564 15.595 14.91 25.925 14.927v223.605H30.5c-16.817 0-30.5 13.683-30.5 30.5s13.683 30.5 30.5 30.5H116v22.002c0 16.542 13.458 30 30 30h219.999c16.542 0 30-13.458 30-30v-22.002H481.5c16.817 0 30.499-13.682 30.499-30.5s-13.682-30.499-30.499-30.499zM47.344 150.438c-1.333-2.301-1.689-4.984-1.005-7.554s2.329-4.719 4.619-6.045l200.052-115.5a9.977 9.977 0 0110.104.071l.12.07L461.03 136.832a9.892 9.892 0 014.63 6.052 9.886 9.886 0 01-1.005 7.554 9.888 9.888 0 01-6.052 4.63 9.891 9.891 0 01-7.565-1.012L261 44.338a9.994 9.994 0 00-10 0L60.962 154.057l-.012.007c-4.752 2.752-10.854 1.125-13.606-3.626zm28.618 18.053L256 64.545 436.037 168.49v230.505h-40.038V235.997H406c5.522 0 10-4.477 10-10s-4.478-10-10-10H300.996c-5.522 0-10 4.477-10 10s4.478 10 10 10h26.733a79.628 79.628 0 017.771 34.31c0 43.837-35.664 79.5-79.5 79.5s-79.5-35.664-79.5-79.5a79.626 79.626 0 017.772-34.31h26.724c5.522 0 10-4.477 10-10s-4.478-10-10-10H105.999c-5.522 0-10 4.477-10 10s4.478 10 10 10H116v162.998H75.962V168.491zM176 379.676c23.016 17.244 50.758 26.561 80 26.561 29.241 0 56.982-9.317 79.999-26.561v33.325c-19.562 3.987-35.008 19.434-38.995 38.995h-82.009c-3.987-19.561-19.434-35.008-38.995-38.995v-33.325zm159.999-26.328c-21.533 21.229-49.836 32.889-79.999 32.889-30.164 0-58.468-11.66-80-32.889v-23.947c18.142 24.496 47.246 40.407 80 40.407 32.753 0 61.857-15.911 79.999-40.406v23.946zM30.5 439.995c-5.79 0-10.5-4.71-10.5-10.5s4.71-10.5 10.5-10.5H116v21H30.5zm345.499 42.002c0 5.514-4.486 10-10 10H146c-5.514 0-10-4.486-10-10v-246h20v185.999c0 5.523 4.478 10 10 10 16.542 0 30 13.458 30 30 0 5.523 4.478 10 10 10h99.999c5.522 0 10-4.477 10-10 0-16.542 13.458-30 30-30 5.522 0 10-4.477 10-10V235.997h20v246zM481.5 439.995h-85.501v-21H481.5c5.789 0 10.499 4.71 10.499 10.5s-4.71 10.5-10.499 10.5z"/><path d="M209.289 270.308H206c-5.522 0-10 4.477-10 10s4.478 10 10 10h5.272a26.76 26.76 0 004.742 6.415c5.037 5.037 11.733 7.811 18.856 7.811s13.819-2.774 18.856-7.811l18.688-18.688c1.259-1.259 2.934-1.953 4.714-1.953s3.455.693 4.714 1.953c1.26 1.259 1.953 2.933 1.953 4.714s-.693 3.455-1.953 4.714c-3.905 3.905-3.905 10.237 0 14.143 1.953 1.953 4.512 2.929 7.071 2.929s5.118-.976 7.071-2.929a26.493 26.493 0 006.711-11.297H306c5.522 0 10-4.477 10-10s-4.478-10-10-10h-5.282a26.577 26.577 0 00-4.733-6.416c-10.397-10.398-27.315-10.396-37.713 0l-18.688 18.688c-1.259 1.259-2.934 1.953-4.714 1.953s-3.455-.693-4.714-1.953a6.618 6.618 0 01-1.953-4.713c0-1.781.693-3.456 1.953-4.715 3.905-3.905 3.905-10.237 0-14.142-3.906-3.905-10.238-3.905-14.143 0a26.525 26.525 0 00-6.724 11.297zM256 235.997c5.522 0 10-4.477 10-10s-4.478-10-10-10h-.008c-5.522 0-9.996 4.477-9.996 10s4.482 10 10.004 10z"/></g></svg>