<svg version="1.1" id="Capa_1" xmlns="http://www.w3.org/2000/svg" x="0" y="0" width="512" height="512" xml:space="preserve"><defs><linearGradient spreadMethod="pad" id="gradient" x1="8%" y1="0%" x2="0%" y2="99%"><stop offset="0%" stop-color="#44b64b"/><stop offset="100%" stop-color="#636ac3"/></linearGradient></defs><g fill="url(#gradient)"><path d="M420.527 200h29.082c4.21 12.761 16.238 22 30.391 22 17.645 0 32-14.355 32-32s-14.355-32-32-32c-14.153 0-26.181 9.239-30.391 22h-29.082v-34.686a10 10 0 00-8.597-9.901 317.318 317.318 0 01-31.098-6.012l15.122-27.9H480c5.523 0 10-4.478 10-10v-29.11c12.761-4.21 22-16.238 22-30.391 0-17.645-14.355-32-32-32s-32 14.356-32 32c0 14.153 9.239 26.182 22 30.391V81.5h-80a10 10 0 00-8.792 5.234l-20.13 37.14c-35.626-11.213-69.214-28.642-98.98-51.547a9.996 9.996 0 00-12.197 0c-29.765 22.905-63.353 40.334-98.98 51.547l-20.13-37.14a9.999 9.999 0 00-8.792-5.234H42V62.391C54.761 58.182 64 46.153 64 32 64 14.356 49.645 0 32 0S0 14.356 0 32c0 14.153 9.239 26.182 22 30.391V91.5c0 5.522 4.477 10 10 10h84.046l15.122 27.9a317.375 317.375 0 01-31.098 6.012 10 10 0 00-8.597 9.901V180H62.391c-4.21-12.761-16.238-22-30.391-22-17.645 0-32 14.355-32 32s14.355 32 32 32c14.153 0 26.181-9.239 30.391-22h29.082v54.787c0 19.451 2.775 38.72 8.1 57.213H62.391c-4.21-12.761-16.238-22-30.391-22-17.645 0-32 14.355-32 32s14.355 32 32 32c14.153 0 26.181-9.239 30.391-22h44.054c7.571 18.837 17.904 36.564 30.755 52.478a202.648 202.648 0 005.153 6.119H32c-5.523 0-10 4.477-10 10v49.012C9.239 453.818 0 465.847 0 480c0 17.645 14.355 32 32 32s32-14.355 32-32c0-14.153-9.239-26.182-22-30.391v-39.012h120.463c26.007 22.52 57.505 38.423 91.415 45.786a9.99 9.99 0 004.244 0c33.91-7.363 65.408-23.266 91.415-45.786H470v39.012c-12.761 4.21-22 16.238-22 30.391 0 17.645 14.355 32 32 32s32-14.355 32-32c0-14.153-9.239-26.182-22-30.391v-49.012c0-5.523-4.477-10-10-10H369.647a204.13 204.13 0 005.153-6.119c12.851-15.914 23.184-33.641 30.755-52.478h44.054c4.21 12.761 16.238 22 30.391 22 17.645 0 32-14.355 32-32s-14.355-32-32-32c-14.153 0-26.181 9.239-30.391 22h-37.182c5.325-18.493 8.1-37.762 8.1-57.213V200zM480 178c6.617 0 12 5.383 12 12s-5.383 12-12 12-12-5.383-12-12 5.383-12 12-12zm0-158c6.617 0 12 5.383 12 12s-5.383 12-12 12-12-5.383-12-12 5.383-12 12-12zM32 20c6.617 0 12 5.383 12 12s-5.383 12-12 12-12-5.383-12-12 5.383-12 12-12zm0 182c-6.617 0-12-5.383-12-12s5.383-12 12-12 12 5.383 12 12-5.383 12-12 12zm0 132c-6.617 0-12-5.383-12-12s5.383-12 12-12 12 5.383 12 12-5.383 12-12 12zm0 158c-6.617 0-12-5.383-12-12s5.383-12 12-12 12 5.383 12 12-5.383 12-12 12zm448 0c-6.617 0-12-5.383-12-12s5.383-12 12-12 12 5.383 12 12-5.383 12-12 12zm0-182c6.617 0 12 5.383 12 12s-5.383 12-12 12-12-5.383-12-12 5.383-12 12-12zM256 436.365c-85.205-19.509-144.527-93.866-144.527-181.578V153.883c52.172-8.777 101.828-29.774 144.527-61.121 42.699 31.347 92.354 52.344 144.527 61.121v100.904c0 87.712-59.322 162.069-144.527 181.578z"/><path d="M256 141.044c-63.387 0-114.956 51.569-114.956 114.956 0 44.744 26.271 85.751 66.928 104.47a9.955 9.955 0 004.176.919 10.002 10.002 0 004.189-19.085c-33.589-15.466-55.292-49.342-55.292-86.304 0-52.359 42.597-94.956 94.956-94.956s94.956 42.597 94.956 94.956c0 36.865-21.622 70.703-55.086 86.208-5.011 2.321-7.191 8.266-4.869 13.277 2.321 5.012 8.266 7.192 13.277 4.869 40.505-18.767 66.678-59.728 66.678-104.354-.001-63.387-51.57-114.956-114.957-114.956z"/><path d="M256 181.044c-21.505 0-39 17.495-39 39v5.466c-11.037.059-20 9.052-20 20.103v26.343c0 32.533 26.467 59 59 59s59-26.467 59-59v-26.343c0-11.051-8.963-20.044-20-20.103v-5.466c0-21.505-17.495-39-39-39zm0 20c10.477 0 19 8.523 19 19v5.461h-38v-5.461c0-10.477 8.523-19 19-19zm39 70.912c0 21.505-17.495 39-39 39s-39-17.495-39-39v-26.343c0-.06.048-.108.108-.108h77.784c.06 0 .108.049.108.108v26.343z"/><path d="M256 261.56c-5.523 0-10 4.478-10 10v9.286c0 5.522 4.477 10 10 10s10-4.478 10-10v-9.286c0-5.522-4.477-10-10-10zm0 89.358c-5.523 0-10 4.478-10 10v.038c0 5.522 4.477 9.98 10 9.98s10-4.496 10-10.018-4.477-10-10-10z"/></g></svg>