<svg version="1.1" id="Layer_1" xmlns="http://www.w3.org/2000/svg" x="0" y="0" width="512" height="512" xml:space="preserve"><defs><linearGradient spreadMethod="pad" id="gradient" x1="8%" y1="0%" x2="0%" y2="99%"><stop offset="0%" stop-color="#44b64b"/><stop offset="100%" stop-color="#636ac3"/></linearGradient></defs><g fill="url(#gradient)"><path d="M362.6 508h-203c-45.161 0-67.524-18.1-78.332-33.283-11.934-16.766-12.639-33.704-12.663-34.417a7.756 7.756 0 01-.005-.305V329.401c-.001-27.668 9.994-56.151 82.508-77.049 22.294-6.425 36.811-16.148 43.145-28.898 7.866-15.832 1.74-33.926-2.017-43.805-14.71-2.044-26.091-12.516-29.843-28.062-3.373-13.977.135-27.781 8.438-35.883-8.496-26.245-5.063-53.355 9.76-75.331C197.04 15.986 224.432 2 255.741 2c28.111 0 55.159 13.832 72.351 37 16.601 22.371 22.197 50.383 15.715 77.703 8.33 8.209 11.075 19.959 7.322 32.583-4.473 15.046-16.699 26.914-29.962 29.955-4.544 13.447-7.358 30.843.335 45.429 7.585 14.382 24.445 24.663 50.112 30.559 40.274 9.251 57.067 29.679 64.064 45.186 6.818 15.112 5.838 28.63 5.421 32.168V429.5c0 28.604-13.613 51.313-39.367 65.673-18.729 10.442-37.321 12.678-38.104 12.769-.34.038-.684.058-1.028.058zm-276-68.21c.177 3.132 4.03 50.21 73 50.21h202.429c6.058-.823 61.071-9.717 61.071-60.5V332c0-.489.04-.978.119-1.46.255-1.715 5.78-43.662-55.634-57.769-31.004-7.121-51.865-20.48-62.004-39.705-9.386-17.796-9.164-40.396.642-65.358a9 9 0 018.377-5.709c7.573 0 16.4-8.171 19.275-17.843 1.503-5.056 1.823-12.044-5.192-16.619a9 9 0 01-3.697-10.146c7.157-23.639 3.02-48.302-11.349-67.665C299.825 31.113 278.181 20 255.741 20c-25.228 0-47.18 11.094-60.228 30.438-12.681 18.8-14.711 42.561-5.569 65.19a9 9 0 01-4.492 11.505c-5.081 2.406-7.627 11.671-5.562 20.23 1.074 4.453 4.933 14.651 17.664 14.652.252 0 .505-.004.764-.012a8.997 8.997 0 018.819 6.149c.248.744.687 1.883 1.196 3.202 4.171 10.819 13.939 36.154 2.039 60.107-8.673 17.457-26.936 30.305-54.281 38.186C91.964 288.129 86.599 309.3 86.6 329.401V439.79z"/><path d="M77.608 432.001a9 9 0 01-4.981-16.503l258.682-171.474a8.999 8.999 0 0112.474 2.529 9 9 0 01-2.529 12.474L82.572 430.502a8.957 8.957 0 01-4.964 1.499zm137.984 76a9 9 0 01-7.52-13.934l154-235a9 9 0 0115.056 9.865l-154 235a8.993 8.993 0 01-7.536 4.069z"/><path d="M152.6 382.284a9 9 0 01-9-9V346c0-4.971 4.029-9 9-9s9 4.029 9 9v27.284a9 9 0 01-9 9zm183.693-264.811a9.28 9.28 0 01-.938-.048L174.48 100.772a9 9 0 01-8.025-9.879c.512-4.943 4.933-8.54 9.879-8.025l160.875 16.653a9 9 0 01-.916 17.952zm-5.974-47.883c-.331 0-.665-.019-1.002-.056l-141.89-15.711c-4.94-.547-8.501-4.996-7.955-9.936a8.998 8.998 0 019.936-7.955l141.891 15.711c4.94.547 8.501 4.996 7.955 9.936a9.003 9.003 0 01-8.935 8.011z"/><path d="M238.56 59.429a8.984 8.984 0 01-7.221-3.62 9 9 0 011.833-12.595L278.885 9.12a9 9 0 0110.762 14.428l-45.713 34.094a8.955 8.955 0 01-5.374 1.787zM303.6 508c-4.971 0-9-4.029-9-9s4.029-9 9-9c14.1 0 21.708-13.371 21.708-25.952 0-10.846-3.638-18.168-11.121-22.384-6.094-3.434-12.586-3.566-12.65-3.567h-40.128c-4.971 0-9-4.029-9-9s4.029-9 9-9H301.6c1.067 0 10.716.152 20.595 5.431 9.631 5.146 21.113 16.007 21.113 38.521 0 10.744-3.602 21.476-9.883 29.441-7.378 9.357-17.97 14.51-29.825 14.51z"/></g></svg>