<svg height="512" viewBox="0 0 64 64" width="512" xmlns="http://www.w3.org/2000/svg"><g id="debt"><path d="M44 36h2a3 3 0 010 6h-6v2h4v2h2v-2a5 5 0 000-10h-2a3 3 0 010-6h6v-2h-4v-2h-2v2a5 5 0 000 10z"/><path d="M45 52a16.991 16.991 0 006-32.89V15a1 1 0 00-1-1h-2v-3a1 1 0 00-1-1h-1v-.5a7.5 7.5 0 00-15 0 4.507 4.507 0 01-4.5 4.5H9v2h17.5A6.513 6.513 0 0033 9.5a5.5 5.5 0 0111 0v.5h-1a1 1 0 00-1 1v3h-2a1 1 0 00-1 1v4.11a17.034 17.034 0 00-10.87 18.03l-5.66-3.02a.974.974 0 00-.88-.03L14 37.46V37a1 1 0 00-1-1H9a1 1 0 00-1 1v.61l-4.68-1.56a1 1 0 00-.9.14A.983.983 0 002 37v18a.983.983 0 00.42.81A.939.939 0 003 56a1.185 1.185 0 00.32-.05L8 54.39V55a1 1 0 001 1h4a1 1 0 00.99-.93l8.39 6.71A.977.977 0 0023 62h29a4 4 0 000-8H32.35l-7.5-6h9.21A16.946 16.946 0 0045 52zm-37 .28l-4 1.33V38.39l4 1.33zM12 54h-2V38h2zm32-42h2v2h-2zm-3 4h8v2.49a16.572 16.572 0 00-8 0zm4 4a15 15 0 11-8.31 27.48A3.014 3.014 0 0038 45v-2a.984.984 0 00-.53-.88l-7.09-3.79A14.72 14.72 0 0130 35a15.018 15.018 0 0115-15zM21.38 47.78l10 8A.977.977 0 0032 56h20a2 2 0 010 4H23.35L14 52.52V39.65l7.96-3.54L36 43.6V45a1 1 0 01-1 1H22a1 1 0 00-.94.67.983.983 0 00.32 1.11z"/><path d="M3.5 5.964h2v7.071h-2z" transform="rotate(-45 4.498 9.5)"/><path d="M.964 19.5h7.071v2H.964z" transform="rotate(-45 4.496 20.503)"/><path d="M12.5 16.964h2v7.071h-2z" transform="rotate(-45 13.497 20.504)"/><path d="M9.964 8.5h7.071v2H9.964z" transform="rotate(-45 13.499 9.502)"/><path d="M2 14h5v2H2z"/></g></svg>