<svg id="Capa_1" height="512" viewBox="0 0 506.214 506.214" width="512" xmlns="http://www.w3.org/2000/svg"><linearGradient id="linear-gradient" gradientTransform="rotate(90)"><stop offset="0%" stop-color="#44b64b"/><stop offset="100%" stop-color="#636ac3"/></linearGradient><g fill="url(#linear-gradient)"><path d="M253.107 100.973c16.275 0 32.107 4.59 45.783 13.275a7.501 7.501 0 008.041-12.663c-16.084-10.213-34.696-15.612-53.824-15.612a100.495 100.495 0 00-76.023 34.752 100.51 100.51 0 00-24.526 65.81c0 55.443 45.106 100.55 100.55 100.55a100.494 100.494 0 0076.021-34.751c15.817-18.241 24.528-41.609 24.528-65.799 0-22.542-7.293-43.85-21.091-61.621a7.5 7.5 0 00-11.847 9.199c11.735 15.115 17.938 33.242 17.938 52.421 0 20.58-7.408 40.458-20.865 55.977a85.508 85.508 0 01-64.684 29.573c-47.172 0-85.55-38.377-85.55-85.55a85.511 85.511 0 0120.865-55.99 85.511 85.511 0 0164.684-29.571z"/><path d="M417.102 183.876c-.67-42.344-17.615-82.374-47.715-112.715-30.102-30.344-69.993-47.605-112.327-48.602-44.612-1.044-86.689 15.51-118.548 46.627-31.87 31.128-49.421 72.801-49.421 117.342 0 35.514 11.174 69.315 32.261 97.681l33.745 46.53a7.499 7.499 0 0010.475 1.668 7.5 7.5 0 001.668-10.475l-33.797-46.601c-19.202-25.83-29.351-56.538-29.351-88.803 0-40.468 15.946-78.33 44.902-106.611 28.945-28.272 67.211-43.331 107.714-42.362 38.438.905 74.675 16.592 102.032 44.17 27.355 27.577 42.757 63.939 43.365 102.389.524 33.156-9.618 64.699-29.385 91.29l-70.754 97.563c-12.298 16.958-20.777 35.937-25.202 56.412l-5.296 24.508c-1.855 8.585-9.576 14.816-18.36 14.816-8.783 0-16.505-6.231-18.36-14.816l-5.296-24.508c-4.425-20.474-12.904-39.454-25.202-56.411l-18.009-24.833a7.5 7.5 0 00-12.143 8.807l18.009 24.833c11.069 15.262 18.7 32.345 22.683 50.773l5.296 24.508c3.336 15.441 17.224 26.648 33.021 26.648s29.685-11.207 33.022-26.648l5.296-24.507c3.982-18.428 11.614-35.511 22.683-50.774l70.702-97.491c21.703-29.198 32.869-63.917 32.292-100.408zm6.539 78.727c14.402 5.773 23.708 19.523 23.708 35.03a37.675 37.675 0 01-9.202 24.684 37.704 37.704 0 01-28.523 13.042 37.6 37.6 0 01-25.646-10.068 7.5 7.5 0 00-10.204 10.996 52.553 52.553 0 0035.849 14.072c15.31 0 29.84-6.643 39.86-18.219a52.666 52.666 0 0012.865-34.506c0-21.671-13.003-40.886-33.128-48.953a7.5 7.5 0 10-5.579 13.922zm30.479 125.413a7.501 7.501 0 00-10.475 1.669l-8.827 12.172a88.137 88.137 0 00-14.889 33.325l-3.015 13.951c-.736 3.41-3.803 5.884-7.292 5.884s-6.557-2.475-7.293-5.885l-3.015-13.951a88.135 88.135 0 00-14.888-33.325l-27.107-37.377a7.5 7.5 0 00-12.143 8.807l27.107 37.377a73.223 73.223 0 0112.368 27.687l3.015 13.951c2.219 10.266 11.452 17.716 21.955 17.716 10.504 0 19.736-7.451 21.954-17.717l3.015-13.95a73.222 73.222 0 0112.369-27.687l8.827-12.173a7.497 7.497 0 00-1.666-10.474z"/><path d="M440.143 206.016a7.5 7.5 0 10-4.775 14.22c32.853 11.03 55.291 41.601 55.836 76.072.288 18.154-5.265 35.425-16.11 50.015l-12.541 17.292a7.5 7.5 0 1012.142 8.807l12.489-17.221c12.782-17.196 19.358-37.643 19.018-59.131-.646-40.815-27.193-77.005-66.059-90.054zM159.368 362.811a7.5 7.5 0 00-10.475 1.668l-27.106 37.377a88.135 88.135 0 00-14.888 33.325l-3.015 13.95c-.737 3.41-3.804 5.885-7.293 5.885s-6.556-2.475-7.293-5.885l-3.015-13.95a88.118 88.118 0 00-14.887-33.325L31.069 346.25c-10.793-14.519-16.346-31.79-16.059-49.944.546-34.472 22.986-65.043 55.84-76.073a7.499 7.499 0 004.723-9.497c-1.318-3.927-5.571-6.045-9.497-4.723C27.207 219.061.658 255.252.012 296.068c-.34 21.488 6.236 41.936 18.966 59.06l40.274 55.534a73.223 73.223 0 0112.369 27.687l3.015 13.951c2.218 10.266 11.452 17.716 21.955 17.716 10.502 0 19.736-7.451 21.954-17.717l3.015-13.95a73.223 73.223 0 0112.369-27.687l27.106-37.377a7.498 7.498 0 00-1.667-10.474z"/><path d="M43.866 297.633a52.666 52.666 0 0012.86 34.501 52.697 52.697 0 0039.866 18.224 52.554 52.554 0 0035.847-14.072 7.5 7.5 0 10-10.202-10.996 37.597 37.597 0 01-25.645 10.068 37.711 37.711 0 01-28.529-13.046 37.67 37.67 0 01-9.197-24.68c0-15.509 9.308-29.259 23.712-35.031a7.5 7.5 0 004.172-9.751c-1.541-3.844-5.907-5.715-9.751-4.172-20.128 8.065-33.133 27.281-33.133 48.955z"/></g></svg>