<svg version="1.1" id="Слой_1" xmlns="http://www.w3.org/2000/svg" x="0" y="0" width="390" height="520" xml:space="preserve"><path fill-rule="evenodd" clip-rule="evenodd" fill="#FFF" d="M0 520V0h390v520H0zm369.903-227.242V54.233C273.81 6.025 116.315 5.97 20.086 54.272v238.775s-5.939 76.691 75.451 141.339c52.912 42.026 99.508 61.662 99.747 62.562-.238-.847 46.696-21.314 99.212-63.007 81.343-64.575 75.407-141.183 75.407-141.183z"/><path fill="#E5E5E5" d="M195.046 1c35.803 0 70.674 3.381 103.647 10.049 33.889 6.854 64.231 16.888 90.2 29.83v251.886l.003.038c.016.212 1.521 21.546-8.01 51.336-5.596 17.491-13.846 34.433-24.521 50.357-13.347 19.91-30.545 38.276-51.117 54.59-46.44 36.829-88.488 58.511-104.317 66.674-3.032 1.563-4.721 2.435-5.639 3.005-.739-.421-2.075-1.085-4.547-2.311-14.299-7.095-57.814-28.686-105.945-66.873-20.584-16.332-37.793-34.719-51.147-54.651-10.681-15.941-18.936-32.903-24.535-50.413-9.537-29.823-8.031-51.181-8.015-51.393l.003-.039V40.923C52.743 15.175 121.582 1.001 195.043 1h.003m-.007-1C124.388.001 53.712 13.426.107 40.305v252.743S-6.51 378.409 84.18 450.365c58.957 46.776 110.877 68.633 111.143 69.635-.266-.943 52.032-23.724 110.547-70.129 90.636-71.876 84.023-157.144 84.023-157.144V40.262C336.35 13.429 265.707-.001 195.039 0z"/></svg>