<svg version="1.1" id="Layer_1" xmlns="http://www.w3.org/2000/svg" x="0" y="0" width="612" height="588" viewBox="-149 79 612 588" xml:space="preserve"><path fill="#44b64b" d="M94.492 509.51L-41.502 373.517c-9.998-9.998-9.998-26.207 0-36.204s26.207-9.998 36.204 0l117.892 117.892 306.705-306.707c9.998-9.998 26.207-9.998 36.204 0s9.998 26.207 0 36.204L130.695 509.51c-9.989 9.99-26.209 9.997-36.203 0z"/><path fill="#fff" d="M150.468 664.332c-77.862 0-151.064-30.321-206.122-85.378-55.057-55.058-85.378-128.26-85.378-206.122 0-77.863 30.321-151.065 85.378-206.122C-.597 111.653 72.605 81.332 150.468 81.332c52.128 0 103.291 13.932 147.955 40.29 10.701 6.315 14.258 20.111 7.942 30.813s-20.11 14.259-30.813 7.942c-37.74-22.272-80.994-34.044-125.084-34.044-135.92 0-246.5 110.58-246.5 246.5 0 135.921 110.58 246.5 246.5 246.5 135.921 0 246.5-110.579 246.5-246.5 0-12.426 10.073-22.5 22.5-22.5s22.5 10.074 22.5 22.5c0 77.862-30.321 151.064-85.378 206.122-55.058 55.056-128.26 85.377-206.122 85.377z"/></svg>