<?xml version="1.0" encoding="utf-8"?><svg xmlns="http://www.w3.org/2000/svg" xmlns:xlink="http://www.w3.org/1999/xlink"><symbol class="asvg-inline--fa afa-angle-down afa-w-10" viewBox="0 0 320 512" id="angle-down-solid" xmlns="http://www.w3.org/2000/svg"><path d="M143 352.3L7 216.3c-9.4-9.4-9.4-24.6 0-33.9l22.6-22.6c9.4-9.4 24.6-9.4 33.9 0l96.4 96.4 96.4-96.4c9.4-9.4 24.6-9.4 33.9 0l22.6 22.6c9.4 9.4 9.4 24.6 0 33.9l-136 136c-9.2 9.4-24.4 9.4-33.8 0z"/></symbol><symbol class="bsvg-inline--fa bfa-angle-up bfa-w-10" viewBox="0 0 320 512" id="angle-up-solid" xmlns="http://www.w3.org/2000/svg"><path d="M177 159.7l136 136c9.4 9.4 9.4 24.6 0 33.9l-22.6 22.6c-9.4 9.4-24.6 9.4-33.9 0L160 255.9l-96.4 96.4c-9.4 9.4-24.6 9.4-33.9 0L7 329.7c-9.4-9.4-9.4-24.6 0-33.9l136-136c9.4-9.5 24.6-9.5 34-.1z"/></symbol><symbol viewBox="0 0 512 512" id="arrow" xmlns="http://www.w3.org/2000/svg"><path d="M506.134 241.843l-.018-.019-104.504-104c-7.829-7.791-20.492-7.762-28.285.068-7.792 7.829-7.762 20.492.067 28.284L443.558 236H20c-11.046 0-20 8.954-20 20s8.954 20 20 20h423.557l-70.162 69.824c-7.829 7.792-7.859 20.455-.067 28.284 7.793 7.831 20.457 7.858 28.285.068l104.504-104 .018-.019c7.833-7.818 7.808-20.522-.001-28.314z"/></symbol><symbol class="dsvg-inline--fa dfa-calendar-alt dfa-w-14" viewBox="0 0 448 512" id="calendar" xmlns="http://www.w3.org/2000/svg"><path d="M148 288h-40c-6.6 0-12-5.4-12-12v-40c0-6.6 5.4-12 12-12h40c6.6 0 12 5.4 12 12v40c0 6.6-5.4 12-12 12zm108-12v-40c0-6.6-5.4-12-12-12h-40c-6.6 0-12 5.4-12 12v40c0 6.6 5.4 12 12 12h40c6.6 0 12-5.4 12-12zm96 0v-40c0-6.6-5.4-12-12-12h-40c-6.6 0-12 5.4-12 12v40c0 6.6 5.4 12 12 12h40c6.6 0 12-5.4 12-12zm-96 96v-40c0-6.6-5.4-12-12-12h-40c-6.6 0-12 5.4-12 12v40c0 6.6 5.4 12 12 12h40c6.6 0 12-5.4 12-12zm-96 0v-40c0-6.6-5.4-12-12-12h-40c-6.6 0-12 5.4-12 12v40c0 6.6 5.4 12 12 12h40c6.6 0 12-5.4 12-12zm192 0v-40c0-6.6-5.4-12-12-12h-40c-6.6 0-12 5.4-12 12v40c0 6.6 5.4 12 12 12h40c6.6 0 12-5.4 12-12zm96-260v352c0 26.5-21.5 48-48 48H48c-26.5 0-48-21.5-48-48V112c0-26.5 21.5-48 48-48h48V12c0-6.6 5.4-12 12-12h40c6.6 0 12 5.4 12 12v52h128V12c0-6.6 5.4-12 12-12h40c6.6 0 12 5.4 12 12v52h48c26.5 0 48 21.5 48 48zm-48 346V160H48v298c0 3.3 2.7 6 6 6h340c3.3 0 6-2.7 6-6z"/></symbol><symbol viewBox="0 -47 512 512" id="cap" xmlns="http://www.w3.org/2000/svg"><path d="M507.105 95.203L345.2 33.477a7.607 7.607 0 00-9.816 4.394 7.606 7.606 0 004.398 9.816l143.27 54.622-99.18 37.816-124.734-56.477a7.6 7.6 0 00-10.063 3.79 7.606 7.606 0 003.79 10.066l110.988 50.254L256 188.875 28.95 102.309 256 15.742l55.953 21.336a7.613 7.613 0 009.817-4.398 7.603 7.603 0 00-4.399-9.813L258.711.5a7.606 7.606 0 00-5.422 0L4.895 95.203A7.61 7.61 0 000 102.31v34.726a7.61 7.61 0 004.895 7.106l77.566 29.57v26.351a7.604 7.604 0 1015.207 0v-20.55l155.621 59.332c.875.332 1.793.5 2.711.5s1.836-.168 2.71-.5l117.306-44.723v120.344c-36.828 19.331-78.126 29.69-120.016 29.69-57.172 0-113.25-19.273-158.332-54.347V230.48a7.604 7.604 0 10-15.207 0v63.012a7.599 7.599 0 002.848 5.934c48.246 38.652 108.867 59.937 170.691 59.937 41.695 0 82.836-9.695 120.016-27.855v30.777c-12.254 3.348-21.29 14.57-21.29 27.871 0 15.93 12.962 28.895 28.891 28.895 15.934 0 28.895-12.965 28.895-28.895 0-13.3-9.035-24.523-21.29-27.87v-38.81a271.025 271.025 0 0035.473-24.05 7.603 7.603 0 002.852-5.934V173.707l77.558-29.57A7.603 7.603 0 00512 137.03v-34.72a7.61 7.61 0 00-4.895-7.106zm-109.8 294.953c0 7.543-6.14 13.684-13.688 13.684-7.543 0-13.683-6.14-13.683-13.684 0-7.547 6.14-13.687 13.683-13.687 7.547 0 13.688 6.14 13.688 13.687zM15.207 113.348l233.188 88.906v18.445L15.207 131.793zm248.398 107.351v-18.445l112.41-42.86v18.45zm150.73 69.106a254.74 254.74 0 01-23.112 16.007V188.32l23.113-8.812zm-23.112-117.762v-18.445l105.57-40.25v18.445zm0 0"/></symbol><symbol class="fsvg-inline--fa ffa-clock ffa-w-16" viewBox="0 0 512 512" id="clock" xmlns="http://www.w3.org/2000/svg"><path d="M256 8C119 8 8 119 8 256s111 248 248 248 248-111 248-248S393 8 256 8zm0 448c-110.5 0-200-89.5-200-200S145.5 56 256 56s200 89.5 200 200-89.5 200-200 200zm61.8-104.4l-84.9-61.7c-3.1-2.3-4.9-5.9-4.9-9.7V116c0-6.6 5.4-12 12-12h32c6.6 0 12 5.4 12 12v141.7l66.8 48.6c5.4 3.9 6.5 11.4 2.6 16.8L334.6 349c-3.9 5.3-11.4 6.5-16.8 2.6z"/></symbol><symbol class="gsvg-inline--fa gfa-comments gfa-w-18" viewBox="0 0 576 512" id="comments" xmlns="http://www.w3.org/2000/svg"><path d="M532 386.2c27.5-27.1 44-61.1 44-98.2 0-80-76.5-146.1-176.2-157.9C368.3 72.5 294.3 32 208 32 93.1 32 0 103.6 0 192c0 37 16.5 71 44 98.2-15.3 30.7-37.3 54.5-37.7 54.9-6.3 6.7-8.1 16.5-4.4 25 3.6 8.5 12 14 21.2 14 53.5 0 96.7-20.2 125.2-38.8 9.2 2.1 18.7 3.7 28.4 4.9C208.1 407.6 281.8 448 368 448c20.8 0 40.8-2.4 59.8-6.8C456.3 459.7 499.4 480 553 480c9.2 0 17.5-5.5 21.2-14 3.6-8.5 1.9-18.3-4.4-25-.4-.3-22.5-24.1-37.8-54.8zm-392.8-92.3L122.1 305c-14.1 9.1-28.5 16.3-43.1 21.4 2.7-4.7 5.4-9.7 8-14.8l15.5-31.1L77.7 256C64.2 242.6 48 220.7 48 192c0-60.7 73.3-112 160-112s160 51.3 160 112-73.3 112-160 112c-16.5 0-33-1.9-49-5.6l-19.8-4.5zM498.3 352l-24.7 24.4 15.5 31.1c2.6 5.1 5.3 10.1 8 14.8-14.6-5.1-29-12.3-43.1-21.4l-17.1-11.1-19.9 4.6c-16 3.7-32.5 5.6-49 5.6-54 0-102.2-20.1-131.3-49.7C338 339.5 416 272.9 416 192c0-3.4-.4-6.7-.7-10C479.7 196.5 528 238.8 528 288c0 28.7-16.2 50.6-29.7 64z"/></symbol><symbol class="hsvg-inline--fa hfa-facebook-f hfa-w-10" viewBox="0 0 320 512" id="facebook" xmlns="http://www.w3.org/2000/svg"><path d="M279.14 288l14.22-92.66h-88.91v-60.13c0-25.35 12.42-50.06 52.24-50.06h40.42V6.26S260.43 0 225.36 0c-73.22 0-121.08 44.38-121.08 124.72v70.62H22.89V288h81.39v224h100.17V288z"/></symbol><symbol viewBox="0 0 1024 1024" id="icon" xmlns="http://www.w3.org/2000/svg"><path fill-rule="evenodd" clip-rule="evenodd" d="M527.523 290.445V156.599c-105.843-52.854-279.321-52.916-385.314.041v350.866s-6.541 84.083 83.108 154.957c58.283 46.078 109.606 67.605 109.87 68.593-.248-.873 45.208-20.662 98.573-60.824 21.421 40.469 52.019 75.23 88.983 101.558-1.091.885-2.161 1.772-3.269 2.654-97.503 77.639-184.645 115.752-184.202 117.33-.443-1.676-86.957-38.243-185.195-116.502C-1.039 654.886 9.987 512.073 9.987 512.073V67.431c178.664-89.948 471.081-89.845 649.492-.072v174.545c-48.548 5.153-93.535 22.328-131.956 48.541z"/><path fill-rule="evenodd" clip-rule="evenodd" d="M688.997 784.121c-138.844 0-251.399-113.135-251.399-252.694s112.555-252.689 251.399-252.689 251.399 113.13 251.399 252.689-112.555 252.694-251.399 252.694zm-2.76-375.547c-67.503 0-122.228 55-122.228 122.853s54.724 122.859 122.228 122.859c67.503 0 122.227-55.006 122.227-122.859.001-67.853-54.724-122.853-122.227-122.853z"/><path d="M951.434 1024c-11.569 0-23.27-3.197-33.737-9.899-68.2-43.652-147.285-66.726-228.701-66.726-80.352 0-158.557 22.516-226.161 65.115-29.296 18.459-68.004 9.673-86.461-19.618-18.458-29.294-9.674-68.002 19.618-86.461 87.646-55.227 188.963-84.417 293.003-84.417 105.42 0 207.875 29.914 296.294 86.507 29.16 18.663 37.669 57.434 19.003 86.597-11.963 18.693-32.196 28.899-52.858 28.902z"/></symbol><symbol class="jsvg-inline--fa jfa-instagram jfa-w-14" viewBox="0 0 448 512" id="instagram" xmlns="http://www.w3.org/2000/svg"><path d="M224.1 141c-63.6 0-114.9 51.3-114.9 114.9s51.3 114.9 114.9 114.9S339 319.5 339 255.9 287.7 141 224.1 141zm0 189.6c-41.1 0-74.7-33.5-74.7-74.7s33.5-74.7 74.7-74.7 74.7 33.5 74.7 74.7-33.6 74.7-74.7 74.7zm146.4-194.3c0 14.9-12 26.8-26.8 26.8-14.9 0-26.8-12-26.8-26.8s12-26.8 26.8-26.8 26.8 12 26.8 26.8zm76.1 27.2c-1.7-35.9-9.9-67.7-36.2-93.9-26.2-26.2-58-34.4-93.9-36.2-37-2.1-147.9-2.1-184.9 0-35.8 1.7-67.6 9.9-93.9 36.1s-34.4 58-36.2 93.9c-2.1 37-2.1 147.9 0 184.9 1.7 35.9 9.9 67.7 36.2 93.9s58 34.4 93.9 36.2c37 2.1 147.9 2.1 184.9 0 35.9-1.7 67.7-9.9 93.9-36.2 26.2-26.2 34.4-58 36.2-93.9 2.1-37 2.1-147.8 0-184.8zM398.8 388c-7.8 19.6-22.9 34.7-42.6 42.6-29.5 11.7-99.5 9-132.1 9s-102.7 2.6-132.1-9c-19.6-7.8-34.7-22.9-42.6-42.6-11.7-29.5-9-99.5-9-132.1s-2.6-102.7 9-132.1c7.8-19.6 22.9-34.7 42.6-42.6 29.5-11.7 99.5-9 132.1-9s102.7-2.6 132.1 9c19.6 7.8 34.7 22.9 42.6 42.6 11.7 29.5 9 99.5 9 132.1s2.7 102.7-9 132.1z"/></symbol><symbol viewBox="0 0 100 30" id="logo_100x30" xmlns="http://www.w3.org/2000/svg"><path d="M1.383 9.867c.363.778.849 1.4 1.458 1.867a6.829 6.829 0 002.02 1.067 7.32 7.32 0 002.313.367c1.229 0 2.364-.25 3.403-.75v-2.45c-.715.645-1.721.967-3.018.967a5.116 5.116 0 01-1.517-.225 4.46 4.46 0 01-1.324-.658 3.075 3.075 0 01-.946-1.161c-.235-.483-.352-1.035-.352-1.658 0-1.311.405-2.303 1.215-2.975.811-.672 1.786-1.008 2.926-1.008 1.162 0 2.14.306 2.934.917V1.783c-1.006-.5-2.124-.75-3.353-.75a7.15 7.15 0 00-2.313.375c-.738.25-1.406.62-2.003 1.108-.599.489-1.08 1.142-1.443 1.959-.363.816-.545 1.736-.545 2.758 0 .978.182 1.856.545 2.634zm27.831-2.951c0-.589-.017-1.122-.05-1.6l5.465 7.617h2.364V1.266h-2.515v6.017c0 .589.017 1.122.05 1.6l-5.465-7.617H26.7v11.667h2.515V6.916zm10.587-.883a3.23 3.23 0 001.19 1.092c.475.25.989.483 1.542.7.553.217 1.067.4 1.542.55.475.15.872.35 1.19.6.319.25.478.542.478.875 0 .745-.732 1.117-2.196 1.117a7.416 7.416 0 01-4.158-1.233v2.383c1.263.7 2.71 1.05 4.342 1.05.648 0 1.235-.058 1.76-.175a4.984 4.984 0 001.442-.558 2.627 2.627 0 001.014-1.067c.24-.455.36-1 .36-1.633 0-.644-.159-1.211-.478-1.7a3.185 3.185 0 00-1.19-1.108c-.475-.25-.989-.483-1.542-.7s-1.067-.394-1.542-.533c-.475-.139-.872-.325-1.19-.558-.319-.233-.478-.506-.478-.817 0-.7.637-1.061 1.911-1.083 1.419-.022 2.626.322 3.621 1.033V1.933c-1.062-.6-2.33-.9-3.805-.9-1.23 0-2.252.283-3.068.85-.816.567-1.224 1.389-1.224 2.467.001.644.16 1.205.479 1.683zm18.214 2.383c0 1.667-.883 2.5-2.649 2.5-1.755 0-2.632-.833-2.632-2.5v-7.15H50.22V8.55c0 .667.095 1.267.285 1.8.19.533.447.972.771 1.317s.71.633 1.157.867c.447.233.914.397 1.4.492.486.094.997.142 1.534.142s1.048-.047 1.534-.142a5.089 5.089 0 001.4-.492 4.31 4.31 0 001.157-.867c.324-.344.581-.783.771-1.317.19-.533.285-1.133.285-1.8V1.266h-2.498v7.15zm11.584-1.083l-4.023-6.067h-2.33v11.667h2.515v-7.2l3.101 4.7h1.458l3.101-4.683v7.184h2.515V1.266h-2.33l-4.007 6.067zm9.187 5.6h8.365v-2.2H81.3v-2.6h5.247V5.95H81.3V3.466h5.75v-2.2h-8.265v11.667zm13.21-4.083h1.844l3.168 4.083h2.9l-3.504-4.4c1.71-.544 2.565-1.7 2.565-3.467 0-.711-.132-1.322-.394-1.833a2.872 2.872 0 00-1.09-1.183 5.146 5.146 0 00-1.475-.6 7.446 7.446 0 00-1.702-.183H89.48v11.667h2.515V8.85zm2.431-5.384c.581 0 1.056.133 1.425.4s.553.683.553 1.25c0 .556-.187.97-.562 1.242-.375.272-.847.408-1.417.408h-2.431v-3.3h2.432zM3.47 25.608h5.365l.855 2.183h2.598L7.51 16.124H4.795L0 27.791h2.598l.872-2.183zm2.682-7.167c.056.3.14.606.251.917l1.643 4.183H4.258l1.626-4.183c.112-.267.201-.573.268-.917zm5.013-.067h3.604v9.417h2.498v-9.417h3.604v-2.25h-9.706v2.25zm10.142 0h3.604v9.417h2.498v-9.417h3.604v-2.25h-9.707v2.25zm26.456 5.333h1.844l3.168 4.083h2.9l-3.504-4.4c1.71-.544 2.565-1.7 2.565-3.467 0-.711-.131-1.322-.394-1.833a2.872 2.872 0 00-1.09-1.183 5.146 5.146 0 00-1.475-.6 7.446 7.446 0 00-1.702-.183h-4.828v11.667h2.515v-4.084zm2.431-5.383c.581 0 1.056.133 1.425.4s.553.683.553 1.25c0 .556-.187.97-.562 1.242-.375.272-.847.408-1.417.408h-2.431v-3.3h2.432zm9.404 3.45c0-.589-.017-1.122-.05-1.6l5.465 7.617h2.364V16.124h-2.515v6.017c0 .589.017 1.122.05 1.6l-5.465-7.617h-2.364v11.667h2.515v-6.017zm10.293 6.017h8.365v-2.2h-5.851v-2.6h5.247v-2.183h-5.247v-2.483h5.75v-2.2H69.89v11.666zm16.245-4.134l4.577-7.534H87.88l-3.001 5.234-3.001-5.234h-2.833l4.593 7.534v4.133h2.498v-4.133zm5.356-2.766a3.23 3.23 0 001.19 1.092c.475.25.989.483 1.542.7.553.217 1.067.4 1.542.55.475.15.872.35 1.19.6.319.25.478.542.478.875 0 .745-.732 1.117-2.196 1.117a7.416 7.416 0 01-4.158-1.233v2.383c1.263.7 2.71 1.05 4.342 1.05.648 0 1.235-.058 1.76-.175a4.984 4.984 0 001.442-.558 2.627 2.627 0 001.014-1.067c.24-.455.36-1 .36-1.633 0-.644-.159-1.211-.478-1.7a3.185 3.185 0 00-1.19-1.108c-.475-.25-.989-.483-1.542-.7a18.365 18.365 0 00-1.542-.533c-.475-.139-.872-.325-1.19-.558-.319-.233-.478-.506-.478-.817 0-.7.637-1.061 1.911-1.083 1.419-.022 2.626.322 3.621 1.033v-2.333c-1.062-.6-2.33-.9-3.805-.9-1.23 0-2.252.283-3.068.85-.816.567-1.224 1.389-1.224 2.467.001.642.161 1.203.479 1.681z"/><path fill-rule="evenodd" clip-rule="evenodd" d="M41.109 28.002c-1.704 1.322-3.226 1.971-3.219 1.998-.008-.029-1.519-.651-3.236-1.984-2.64-2.05-2.448-4.483-2.448-4.483V15.96c3.122-1.532 8.231-1.53 11.349-.001v7.565s.193 2.43-2.446 4.478zm.14-4.552v-5.971c-1.849-.9-4.881-.901-6.733.001v5.976s-.114 1.432 1.452 2.639c1.018.785 1.915 1.151 1.92 1.168-.005-.016.899-.398 1.909-1.177 1.567-1.206 1.452-2.636 1.452-2.636zM18.812 9.106c-2.528 0-4.578-2.039-4.578-4.553S16.283 0 18.812 0s4.578 2.038 4.578 4.553-2.05 4.553-4.578 4.553zm-.051-6.766c-1.229 0-2.226.991-2.226 2.214s.997 2.214 2.226 2.214 2.226-.991 2.226-2.214-.996-2.214-2.226-2.214z"/><path d="M23.591 13.429c-.211 0-.424-.058-.614-.178a7.766 7.766 0 00-4.165-1.202 7.778 7.778 0 00-4.118 1.173 1.149 1.149 0 01-1.574-.353 1.123 1.123 0 01.357-1.558 10.073 10.073 0 015.336-1.521c1.92 0 3.785.539 5.396 1.559.531.336.686 1.035.346 1.56a1.15 1.15 0 01-.964.52z"/></symbol><symbol viewBox="0 0 512 512" id="message" xmlns="http://www.w3.org/2000/svg"><path d="M363.48 355.234c18.676 0 33.867-15.195 33.867-33.867V190.633c0-18.672-15.191-33.867-33.867-33.867H148.52c-18.676 0-33.867 15.195-33.867 33.867v130.734c0 18.672 15.191 33.867 33.867 33.867h214.96zm-197.617-30l66.211-66.211 9.676 6.359a23.341 23.341 0 0012.969 3.938 23.34 23.34 0 0012.875-3.875l11.195-7.559 67.348 67.348H165.863zm201.489-127.136V304.02l-63.234-63.234 63.234-42.688zm-36.836-11.332l-75.848 51.207-77.914-51.207h153.762zm-185.868 14.8l61.824 40.633-61.824 61.82V201.566z"/><path d="M437.02 74.98C388.668 26.629 324.379 0 256 0c-56.941 0-111.152 18.52-155.629 52.691l.211-8.875c.195-8.281-6.355-15.156-14.641-15.352-8.289-.184-15.152 6.355-15.352 14.641l-.844 35.582c-.273 11.547 8.176 21.238 19.652 22.543l39.277 4.359c7.527 0 14.02-5.656 14.887-13.313.934-8.23-4.98-15.66-13.215-16.594l-9.254-1.051C159.883 45.672 206.785 30 256 30c60.367 0 117.121 23.508 159.805 66.195C458.492 138.879 482 195.633 482 256c0 28.391-5.191 56.07-15.434 82.266-3.016 7.715.793 16.414 8.508 19.43a14.924 14.924 0 005.457 1.035c5.996 0 11.66-3.621 13.977-9.543C506.113 319.496 512 288.145 512 256c0-68.379-26.629-132.668-74.98-181.02zm-13.137 336.036l-39.789-4.656c-8.227-.961-15.68 4.93-16.645 13.156-.961 8.227 4.93 15.68 13.156 16.641l10.539 1.234C352.695 466.336 305.715 482 256 482c-60.367 0-117.121-23.508-159.805-66.195C53.508 373.121 30 316.367 30 256c0-37.25 9.25-74.168 26.754-106.762 3.918-7.297 1.18-16.391-6.121-20.309-7.297-3.922-16.395-1.184-20.313 6.117C10.484 171.988 0 213.813 0 256c0 68.379 26.629 132.668 74.98 181.02S187.621 512 256 512c56.965 0 110.797-18.191 154.699-51.785l-.148 7.027c-.172 8.281 6.398 15.141 14.684 15.313.105.004.215.004.32.004 8.137 0 14.816-6.512 14.992-14.688l.77-36.836c.218-10.226-7.278-18.836-17.434-20.019z"/></symbol><symbol viewBox="0 0 50 50" id="placeholder" xmlns="http://www.w3.org/2000/svg"><path d="M24.985 9.963c-5.71 0-10.347 4.695-10.347 10.454s4.637 10.464 10.347 10.464 10.347-4.695 10.347-10.454S30.695 9.963 24.985 9.963zm0 18.413c-4.343 0-7.866-3.57-7.866-7.948s3.533-7.948 7.866-7.948 7.866 3.57 7.866 7.948-3.523 7.948-7.866 7.948z"/><path d="M24.985 0c-.233 0-.476 0-.709.01C14.294.358 6.043 8.194 5.092 18.228a20.647 20.647 0 00.263 5.759s.03.235.142.675a19.467 19.467 0 001.336 3.969c2.055 4.92 6.56 12.5 16.34 20.704.516.43 1.164.665 1.832.665s1.316-.235 1.832-.665c9.77-8.194 14.275-15.784 16.32-20.663a19.946 19.946 0 001.346-4c.061-.245.101-.45.132-.644.244-1.258.365-2.547.365-3.836C44.98 9.063 36.01 0 24.985 0zm17.191 23.599c0 .02-.03.194-.101.511a18.496 18.496 0 01-1.195 3.55c-1.954 4.664-6.246 11.876-15.631 19.742a.403.403 0 01-.253.092.423.423 0 01-.253-.092c-9.385-7.876-13.688-15.088-15.652-19.783A17.746 17.746 0 017.907 24.1c-.061-.266-.091-.43-.101-.481 0-.02-.01-.041-.01-.061a18.157 18.157 0 01-.234-5.084c.84-8.787 8.059-15.651 16.806-15.957C34.299 2.169 42.5 10.229 42.5 20.203c0 1.125-.112 2.25-.324 3.396z"/></symbol><symbol viewBox="0 0 506.214 506.214" id="placeholder2" xmlns="http://www.w3.org/2000/svg"><path d="M253.107 100.973c16.275 0 32.107 4.59 45.783 13.275a7.501 7.501 0 008.041-12.663c-16.084-10.213-34.696-15.612-53.824-15.612a100.495 100.495 0 00-76.023 34.752 100.51 100.51 0 00-24.526 65.81c0 55.443 45.106 100.55 100.55 100.55a100.494 100.494 0 0076.021-34.751c15.817-18.241 24.528-41.609 24.528-65.799 0-22.542-7.293-43.85-21.091-61.621a7.5 7.5 0 00-11.847 9.199c11.735 15.115 17.938 33.242 17.938 52.421 0 20.58-7.408 40.458-20.865 55.977a85.508 85.508 0 01-64.684 29.573c-47.172 0-85.55-38.377-85.55-85.55a85.511 85.511 0 0120.865-55.99 85.511 85.511 0 0164.684-29.571z"/><path d="M417.102 183.876c-.67-42.344-17.615-82.374-47.715-112.715-30.102-30.344-69.993-47.605-112.327-48.602-44.612-1.044-86.689 15.51-118.548 46.627-31.87 31.128-49.421 72.801-49.421 117.342 0 35.514 11.174 69.315 32.261 97.681l33.745 46.53a7.499 7.499 0 0010.475 1.668 7.5 7.5 0 001.668-10.475l-33.797-46.601c-19.202-25.83-29.351-56.538-29.351-88.803 0-40.468 15.946-78.33 44.902-106.611 28.945-28.272 67.211-43.331 107.714-42.362 38.438.905 74.675 16.592 102.032 44.17 27.355 27.577 42.757 63.939 43.365 102.389.524 33.156-9.618 64.699-29.385 91.29l-70.754 97.563c-12.298 16.958-20.777 35.937-25.202 56.412l-5.296 24.508c-1.855 8.585-9.576 14.816-18.36 14.816-8.783 0-16.505-6.231-18.36-14.816l-5.296-24.508c-4.425-20.474-12.904-39.454-25.202-56.411l-18.009-24.833a7.5 7.5 0 00-12.143 8.807l18.009 24.833c11.069 15.262 18.7 32.345 22.683 50.773l5.296 24.508c3.336 15.441 17.224 26.648 33.021 26.648s29.685-11.207 33.022-26.648l5.296-24.507c3.982-18.428 11.614-35.511 22.683-50.774l70.702-97.491c21.703-29.198 32.869-63.917 32.292-100.408zm6.539 78.727c14.402 5.773 23.708 19.523 23.708 35.03a37.675 37.675 0 01-9.202 24.684 37.704 37.704 0 01-28.523 13.042 37.6 37.6 0 01-25.646-10.068 7.5 7.5 0 00-10.204 10.996 52.553 52.553 0 0035.849 14.072c15.31 0 29.84-6.643 39.86-18.219a52.666 52.666 0 0012.865-34.506c0-21.671-13.003-40.886-33.128-48.953a7.5 7.5 0 10-5.579 13.922zm30.479 125.413a7.501 7.501 0 00-10.475 1.669l-8.827 12.172a88.137 88.137 0 00-14.889 33.325l-3.015 13.951c-.736 3.41-3.803 5.884-7.292 5.884s-6.557-2.475-7.293-5.885l-3.015-13.951a88.135 88.135 0 00-14.888-33.325l-27.107-37.377a7.5 7.5 0 00-12.143 8.807l27.107 37.377a73.223 73.223 0 0112.368 27.687l3.015 13.951c2.219 10.266 11.452 17.716 21.955 17.716 10.504 0 19.736-7.451 21.954-17.717l3.015-13.95a73.222 73.222 0 0112.369-27.687l8.827-12.173a7.497 7.497 0 00-1.666-10.474z"/><path d="M440.143 206.016a7.5 7.5 0 10-4.775 14.22c32.853 11.03 55.291 41.601 55.836 76.072.288 18.154-5.265 35.425-16.11 50.015l-12.541 17.292a7.5 7.5 0 1012.142 8.807l12.489-17.221c12.782-17.196 19.358-37.643 19.018-59.131-.646-40.815-27.193-77.005-66.059-90.054zM159.368 362.811a7.5 7.5 0 00-10.475 1.668l-27.106 37.377a88.135 88.135 0 00-14.888 33.325l-3.015 13.95c-.737 3.41-3.804 5.885-7.293 5.885s-6.556-2.475-7.293-5.885l-3.015-13.95a88.118 88.118 0 00-14.887-33.325L31.069 346.25c-10.793-14.519-16.346-31.79-16.059-49.944.546-34.472 22.986-65.043 55.84-76.073a7.499 7.499 0 004.723-9.497c-1.318-3.927-5.571-6.045-9.497-4.723C27.207 219.061.658 255.252.012 296.068c-.34 21.488 6.236 41.936 18.966 59.06l40.274 55.534a73.223 73.223 0 0112.369 27.687l3.015 13.951c2.218 10.266 11.452 17.716 21.955 17.716 10.502 0 19.736-7.451 21.954-17.717l3.015-13.95a73.223 73.223 0 0112.369-27.687l27.106-37.377a7.498 7.498 0 00-1.667-10.474z"/><path d="M43.866 297.633a52.666 52.666 0 0012.86 34.501 52.697 52.697 0 0039.866 18.224 52.554 52.554 0 0035.847-14.072 7.5 7.5 0 10-10.202-10.996 37.597 37.597 0 01-25.645 10.068 37.711 37.711 0 01-28.529-13.046 37.67 37.67 0 01-9.197-24.68c0-15.509 9.308-29.259 23.712-35.031a7.5 7.5 0 004.172-9.751c-1.541-3.844-5.907-5.715-9.751-4.172-20.128 8.065-33.133 27.281-33.133 48.955z"/></symbol><symbol class="osvg-inline--fa ofa-quote-right ofa-w-16" viewBox="0 0 512 512" id="quote" xmlns="http://www.w3.org/2000/svg"><path d="M464 32H336c-26.5 0-48 21.5-48 48v128c0 26.5 21.5 48 48 48h80v64c0 35.3-28.7 64-64 64h-8c-13.3 0-24 10.7-24 24v48c0 13.3 10.7 24 24 24h8c88.4 0 160-71.6 160-160V80c0-26.5-21.5-48-48-48zm-288 0H48C21.5 32 0 53.5 0 80v128c0 26.5 21.5 48 48 48h80v64c0 35.3-28.7 64-64 64h-8c-13.3 0-24 10.7-24 24v48c0 13.3 10.7 24 24 24h8c88.4 0 160-71.6 160-160V80c0-26.5-21.5-48-48-48z"/></symbol><symbol viewBox="0 0 330 330" id="search" xmlns="http://www.w3.org/2000/svg"><path d="M325.606 304.394L223.329 202.117c16.706-21.256 26.682-48.04 26.682-77.111C250.011 56.077 193.934 0 125.005 0 56.077 0 0 56.077 0 125.005S56.077 250.01 125.005 250.01c29.07 0 55.855-9.975 77.111-26.681l102.278 102.277c2.928 2.93 6.767 4.394 10.606 4.394s7.678-1.464 10.606-4.394c5.858-5.857 5.858-15.355 0-21.212zM30 125.005C30 72.619 72.619 30 125.005 30s95.006 42.619 95.006 95.005-42.62 95.005-95.006 95.005S30 177.391 30 125.005z"/></symbol><symbol viewBox="0 0 511.999 511.999" id="search_diploma" xmlns="http://www.w3.org/2000/svg"><path d="M55.071 147.892c-1.859-1.859-4.439-2.93-7.069-2.93s-5.21 1.07-7.07 2.93a10.033 10.033 0 00-2.93 7.07c0 2.64 1.06 5.21 2.93 7.07 1.86 1.859 4.44 2.93 7.07 2.93s5.2-1.07 7.069-2.93a10.06 10.06 0 002.931-7.07c0-2.63-1.07-5.21-2.931-7.07z"/><path d="M510.718 308.944l-56.475-100.529a75.567 75.567 0 005.745-28.953c0-38.514-28.805-70.406-65.998-75.319V64.004c0-35.289-28.709-63.999-63.998-63.999H63.998C28.709.006 0 28.715 0 64.004c0 5.522 4.478 10 10 10h27.999v34.999c0 5.522 4.478 10 10 10s10-4.478 10-10V74.004h217.995c5.522 0 10-4.478 10-10 0-24.261 19.738-43.999 43.999-43.999s43.999 19.737 43.999 43.999v40.139c-37.193 4.914-65.998 36.806-65.998 75.319a75.513 75.513 0 006.471 30.632l-57.013 98.748a10 10 0 00.767 11.139 9.993 9.993 0 0010.606 3.486l37.548-10.584 9.607 37.809a9.999 9.999 0 0018.322 2.589l39.691-67.802v162.516c0 17.033 6.701 32.52 17.59 43.999H101.998c-24.261 0-43.999-19.738-43.999-43.999V197.001c0-5.522-4.478-10-10-10s-10 4.478-10 10v250.994c0 35.289 28.709 63.998 63.999 63.998H437.99c35.289 0 63.999-28.709 63.999-63.998 0-5.522-4.478-10-10-10h-97.998V284.311l39.79 68.918a9.998 9.998 0 0018.352-2.537l9.607-37.809 37.547 10.584a9.995 9.995 0 0010.57-3.439 10.002 10.002 0 00.861-11.084zM266.781 54.004H21.146c4.539-19.461 22.029-33.999 42.853-33.999h219.585c-8.714 9.186-14.745 20.938-16.803 33.999zm214.062 403.991c-4.539 19.461-22.029 33.999-42.853 33.999-20.823 0-38.313-14.539-42.853-33.999h85.706zM329.358 322.136l-6.131-24.125a10 10 0 00-12.405-7.162l-23.756 6.696 39.49-68.398c10.875 12.554 25.773 21.523 42.682 24.864l-39.88 68.125zm54.633-86.675c-30.878 0-55.999-25.12-55.999-55.999 0-30.878 25.12-55.999 55.999-55.999 30.878 0 55.999 25.12 55.999 55.999s-25.121 55.999-55.999 55.999zm73.297 55.388a10.002 10.002 0 00-12.405 7.162l-6.078 23.921-39.3-68.069c17.073-3.556 32.059-12.859 42.846-25.784l39.087 69.578-24.15-6.808z"/><path d="M196.748 272.999h-86.753c-5.522 0-10 4.478-10 10s4.478 10 10 10h86.753c5.522 0 10-4.478 10-10s-4.478-10-10-10zm0 49.005h-86.753c-5.522 0-10 4.478-10 10s4.478 10 10 10h86.753c5.522 0 10-4.478 10-10s-4.478-10-10-10zM161.352 116.61h-51.357c-5.522 0-10 4.478-10 10s4.478 10 10 10h51.357c5.522 0 10-4.478 10-10s-4.478-10-10-10zm94.772 102.391H109.995c-5.522 0-10 4.478-10 10s4.478 10 10 10h146.129c5.522 0 10-4.478 10-10 0-5.523-4.478-10-10-10zm57.539 189.328h-47.552c-5.522 0-10 4.478-10 10s4.478 10 10 10h47.552c5.522 0 10-4.478 10-10s-4.478-10-10-10zm-95.979 0h-.154c-5.522 0-10 4.478-10 10s4.478 10 10 10h.154c5.522 0 10-4.478 10-10s-4.478-10-10-10z"/></symbol><symbol viewBox="0 0 512.002 512.002" id="serv_help" xmlns="http://www.w3.org/2000/svg"><path d="M109.834 496.21l-15.055-21.206c-3.196-4.504-9.439-5.563-13.943-2.366-4.503 3.197-5.563 9.439-2.365 13.943l15.055 21.207a9.986 9.986 0 008.163 4.212c2.002 0 4.023-.6 5.78-1.847 4.503-3.197 5.563-9.439 2.365-13.943zm115.372 3.736l-16.384-78.088c-7.967-37.972-30.087-70.806-62.283-92.455l-34.981-23.522c-14.027-9.43-32.881-7.402-44.605 4.553V189.938c0-15.816-10.783-29.254-26.223-32.681-9.965-2.214-20.243.184-28.204 6.571-7.96 6.387-12.525 15.904-12.525 26.11V344.99c0 20.313 6.216 39.806 17.975 56.371l17.833 25.121a9.986 9.986 0 008.163 4.212c2.002 0 4.023-.6 5.78-1.847 4.503-3.197 5.563-9.439 2.365-13.943l-17.833-25.121c-9.344-13.163-14.283-28.652-14.283-44.794V189.938c0-4.108 1.838-7.939 5.042-10.511a13.408 13.408 0 0111.354-2.645c6.215 1.379 10.556 6.789 10.556 13.156v123.016c0 17.414 6.398 34.005 18.021 46.913.498.597 1.01 1.188 1.551 1.761 6.641 7.037 14.449 15.329 21.803 23.145l10.295 10.957c.033.035.069.065.103.099 8.807 9.367 15.302 16.284 15.438 16.428 3.779 4.025 10.109 4.225 14.135.444 4.026-3.781 4.225-10.109.443-14.135-.182-.194-11.888-12.659-25.256-26.868l-22.929-24.403c-.058-.062-.111-.127-.169-.189-5.376-6.43-5.309-15.753.326-22.115 4.985-5.626 13.449-6.706 19.686-2.513L135.379 346c27.848 18.725 46.979 47.123 53.869 79.965l16.385 78.089c.989 4.713 5.146 7.948 9.777 7.948.68 0 1.371-.07 2.063-.215 5.405-1.134 8.867-6.436 7.733-11.841z"/><path d="M74.089 445.858l-.064-.09c-3.21-4.496-9.454-5.54-13.949-2.332s-5.539 9.453-2.332 13.948l.064.09a9.989 9.989 0 008.149 4.193c2.01 0 4.039-.604 5.8-1.861 4.494-3.208 5.539-9.453 2.332-13.948zm425.386-282.029c-7.96-6.387-18.243-8.781-28.203-6.571-15.44 3.426-26.224 16.865-26.224 32.681v120.496c-11.723-11.955-30.579-13.983-44.605-4.553l-34.981 23.521c-32.197 21.648-54.316 54.483-62.283 92.455l-16.384 78.089c-1.134 5.405 2.328 10.706 7.733 11.84.692.145 1.384.215 2.063.215 4.632 0 8.788-3.236 9.777-7.949l16.384-78.089c6.891-32.841 26.021-61.24 53.869-79.964l34.981-23.521c6.235-4.194 14.699-3.114 19.686 2.512 5.628 6.354 5.703 15.662.347 22.092-.064.07-.125.142-.189.212l-48.186 51.271c-3.781 4.026-3.582 10.354.443 14.135 4.026 3.781 10.354 3.582 14.135-.444.136-.144 40.998-43.591 47.639-50.628a38.145 38.145 0 001.551-1.761c11.622-12.908 18.021-29.499 18.021-46.913V189.938c0-6.367 4.341-11.777 10.557-13.156 4.013-.89 8.149.075 11.354 2.645a13.413 13.413 0 015.042 10.511V344.99c0 16.142-4.939 31.631-14.283 44.794l-75.551 106.427c-3.197 4.503-2.138 10.746 2.365 13.943a9.958 9.958 0 005.78 1.847 9.99 9.99 0 008.163-4.212l75.551-106.427c11.759-16.565 17.975-36.058 17.975-56.371V189.938c-.003-10.206-4.567-19.722-12.527-26.109z"/><path d="M382.658 191.66l-17.791-4.25v-3.19c11.563-8.1 19.145-21.513 19.145-36.671V124.42c0-24.679-20.077-44.756-44.756-44.756-11.075 0-21.215 4.052-29.038 10.74C301.508 69.074 280.55 54 256.126 54c-24.454 0-45.434 15.113-54.124 36.484-7.835-6.736-18.012-10.822-29.132-10.822-24.679 0-44.756 20.077-44.756 44.756v23.129c0 15.158 7.582 28.571 19.145 36.671v3.19l-17.791 4.25c-21.242 5.075-36.078 23.872-36.078 45.712v18.676c0 5.523 4.478 10 10 10h45.952a62.577 62.577 0 00-.12 3.661v35.958c0 5.523 4.478 10 10 10h60.11c5.522 0 10-4.477 10-10s-4.478-10-10-10H209V275c0-5.523-4.478-10-10-10s-10 4.477-10 10v20.667h-19.777v-25.958c0-19.287 13.1-35.896 31.854-40.39l27.442-6.576 18.365 41.782a10 10 0 009.153 5.976h.001a10 10 0 009.154-5.975l18.346-41.72 27.355 6.535c18.772 4.485 31.883 21.096 31.883 40.397v25.929h-19.777V275c0-5.523-4.478-10-10-10s-10 4.477-10 10v20.667h-11.333c-5.522 0-10 4.477-10 10s4.478 10 10 10h61.111c5.522 0 10-4.477 10-10v-35.929c0-1.239-.05-2.467-.122-3.69h46.082c5.522 0 10-4.477 10-10v-18.676c0-21.84-14.836-40.638-36.079-45.712zm-43.402-91.998c13.102 0 23.858 10.231 24.702 23.123h-13.903a72.889 72.889 0 01-33.529-8.172c3.803-8.788 12.561-14.951 22.73-14.951zM314.5 146.087c.012-.487.037-.972.037-1.462v-8.906a92.891 92.891 0 0035.518 7.066h13.957v4.763c0 13.65-11.105 24.756-24.756 24.756S314.5 161.198 314.5 147.547v-1.46zm-96.784-33.677c0-21.179 17.23-38.41 38.41-38.41 19.103 0 34.992 14.018 37.926 32.306l-16.835-9.891a9.998 9.998 0 00-12.73 2.2 43.084 43.084 0 01-33.102 15.449h-13.669v-1.654zm-44.845-12.748c10.169 0 18.926 6.164 22.73 14.95a72.892 72.892 0 01-33.529 8.172h-13.903c.844-12.891 11.601-23.122 24.702-23.122zm-24.756 43.122h13.957a92.895 92.895 0 0035.555-7.081v11.843c0 13.65-11.105 24.756-24.756 24.756s-24.756-11.104-24.756-24.755v-4.763zm48.302 67.085c-19.674 4.714-35.136 18.431-42.495 36.178H113.39v-8.676a26.911 26.911 0 0120.725-26.26l25.468-6.084a10 10 0 007.677-9.726v-3.362c1.84.231 3.71.364 5.611.364 1.887 0 3.744-.131 5.57-.359v2.853a9.992 9.992 0 004.562 8.858 9.951 9.951 0 003.553 1.428l14.917 3.574-5.056 1.212zm27.894-15.524a46.92 46.92 0 00-8.007-2.7l-17.864-4.281v-3.116a45.122 45.122 0 008.667-7.918 58.871 58.871 0 0017.204 17.244v.771zm43.432 14.693l-11.702 26.615-11.729-26.683v-7.136a58.455 58.455 0 0011.814 1.202 58.45 58.45 0 0011.617-1.164v7.166zm-11.617-26.003c-21.18.001-38.41-17.23-38.41-38.41v-10.562h13.669c15.858 0 30.936-5.897 42.492-16.415l20.622 12.116v16.324c-.772 20.503-17.683 36.947-38.373 36.947zm31.617 11.342v-.677a58.851 58.851 0 0017.347-17.286 45.113 45.113 0 008.594 7.834v3.116l-17.865 4.281a47.089 47.089 0 00-8.076 2.732zm110.993 51.67h-40.67c-7.366-17.747-22.839-31.456-42.525-36.159l-5.021-1.199 14.997-3.594a9.987 9.987 0 003.605-1.44 9.991 9.991 0 004.562-8.643v-3.068c1.827.228 3.683.359 5.57.359a44.99 44.99 0 005.611-.364v3.362a10 10 0 007.677 9.726l25.468 6.084a26.913 26.913 0 0120.726 26.26v8.676z"/><path d="M263.069 298.59a10.08 10.08 0 00-7.069-2.92c-2.641 0-5.21 1.06-7.07 2.92a10.056 10.056 0 00-2.93 7.08c0 2.63 1.06 5.2 2.93 7.07 1.86 1.86 4.43 2.93 7.07 2.93 2.63 0 5.2-1.07 7.069-2.93a10.094 10.094 0 002.931-7.07c0-2.64-1.07-5.21-2.931-7.08zM255.993 0c-5.522 0-10 4.477-10 10v14.963c0 5.523 4.478 10 10 10s10-4.477 10-10V10c0-5.523-4.477-10-10-10zm-36.836 32.619l-10.49-10.48c-3.907-3.904-10.238-3.901-14.142.006-3.904 3.907-3.9 10.239.007 14.142l10.491 10.48a9.966 9.966 0 007.067 2.926 9.97 9.97 0 007.074-2.932c3.902-3.907 3.9-10.239-.007-14.142zm98.065-10.224c-3.907-3.903-10.24-3.901-14.142.007l-10.409 10.419c-3.903 3.907-3.9 10.239.007 14.142a9.968 9.968 0 007.068 2.926 9.966 9.966 0 007.074-2.933l10.409-10.419c3.903-3.907 3.9-10.239-.007-14.142z"/></symbol><symbol viewBox="0 0 512 512" id="serv_man" xmlns="http://www.w3.org/2000/svg"><path d="M362.6 508h-203c-45.161 0-67.524-18.1-78.332-33.283-11.934-16.766-12.639-33.704-12.663-34.417a7.756 7.756 0 01-.005-.305V329.401c-.001-27.668 9.994-56.151 82.508-77.049 22.294-6.425 36.811-16.148 43.145-28.898 7.866-15.832 1.74-33.926-2.017-43.805-14.71-2.044-26.091-12.516-29.843-28.062-3.373-13.977.135-27.781 8.438-35.883-8.496-26.245-5.063-53.355 9.76-75.331C197.04 15.986 224.432 2 255.741 2c28.111 0 55.159 13.832 72.351 37 16.601 22.371 22.197 50.383 15.715 77.703 8.33 8.209 11.075 19.959 7.322 32.583-4.473 15.046-16.699 26.914-29.962 29.955-4.544 13.447-7.358 30.843.335 45.429 7.585 14.382 24.445 24.663 50.112 30.559 40.274 9.251 57.067 29.679 64.064 45.186 6.818 15.112 5.838 28.63 5.421 32.168V429.5c0 28.604-13.613 51.313-39.367 65.673-18.729 10.442-37.321 12.678-38.104 12.769-.34.038-.684.058-1.028.058zm-276-68.21c.177 3.132 4.03 50.21 73 50.21h202.429c6.058-.823 61.071-9.717 61.071-60.5V332c0-.489.04-.978.119-1.46.255-1.715 5.78-43.662-55.634-57.769-31.004-7.121-51.865-20.48-62.004-39.705-9.386-17.796-9.164-40.396.642-65.358a9 9 0 018.377-5.709c7.573 0 16.4-8.171 19.275-17.843 1.503-5.056 1.823-12.044-5.192-16.619a9 9 0 01-3.697-10.146c7.157-23.639 3.02-48.302-11.349-67.665C299.825 31.113 278.181 20 255.741 20c-25.228 0-47.18 11.094-60.228 30.438-12.681 18.8-14.711 42.561-5.569 65.19a9 9 0 01-4.492 11.505c-5.081 2.406-7.627 11.671-5.562 20.23 1.074 4.453 4.933 14.651 17.664 14.652.252 0 .505-.004.764-.012a8.997 8.997 0 018.819 6.149c.248.744.687 1.883 1.196 3.202 4.171 10.819 13.939 36.154 2.039 60.107-8.673 17.457-26.936 30.305-54.281 38.186C91.964 288.129 86.599 309.3 86.6 329.401V439.79z"/><path d="M77.608 432.001a9 9 0 01-4.981-16.503l258.682-171.474a8.999 8.999 0 0112.474 2.529 9 9 0 01-2.529 12.474L82.572 430.502a8.957 8.957 0 01-4.964 1.499zm137.984 76a9 9 0 01-7.52-13.934l154-235a9 9 0 0115.056 9.865l-154 235a8.993 8.993 0 01-7.536 4.069z"/><path d="M152.6 382.284a9 9 0 01-9-9V346c0-4.971 4.029-9 9-9s9 4.029 9 9v27.284a9 9 0 01-9 9zm183.693-264.811a9.28 9.28 0 01-.938-.048L174.48 100.772a9 9 0 01-8.025-9.879c.512-4.943 4.933-8.54 9.879-8.025l160.875 16.653a9 9 0 01-.916 17.952zm-5.974-47.883c-.331 0-.665-.019-1.002-.056l-141.89-15.711c-4.94-.547-8.501-4.996-7.955-9.936a8.998 8.998 0 019.936-7.955l141.891 15.711c4.94.547 8.501 4.996 7.955 9.936a9.003 9.003 0 01-8.935 8.011z"/><path d="M238.56 59.429a8.984 8.984 0 01-7.221-3.62 9 9 0 011.833-12.595L278.885 9.12a9 9 0 0110.762 14.428l-45.713 34.094a8.955 8.955 0 01-5.374 1.787zM303.6 508c-4.971 0-9-4.029-9-9s4.029-9 9-9c14.1 0 21.708-13.371 21.708-25.952 0-10.846-3.638-18.168-11.121-22.384-6.094-3.434-12.586-3.566-12.65-3.567h-40.128c-4.971 0-9-4.029-9-9s4.029-9 9-9H301.6c1.067 0 10.716.152 20.595 5.431 9.631 5.146 21.113 16.007 21.113 38.521 0 10.744-3.602 21.476-9.883 29.441-7.378 9.357-17.97 14.51-29.825 14.51z"/></symbol><symbol viewBox="0 0 512 512" id="serv_money" xmlns="http://www.w3.org/2000/svg"><path d="M481.5 398.995h-25.463V175.416a30.133 30.133 0 007.716-1.021c7.732-2.06 14.199-7.008 18.209-13.932 4.011-6.924 5.085-14.995 3.024-22.728-2.061-7.732-7.009-14.199-13.944-18.216L271.287 4.19c-9.323-5.524-20.927-5.587-30.289-.165l-200.052 115.5c-6.925 4.011-11.873 10.478-13.933 18.209-2.061 7.732-.987 15.803 3.023 22.728 5.539 9.564 15.595 14.91 25.925 14.927v223.605H30.5c-16.817 0-30.5 13.683-30.5 30.5s13.683 30.5 30.5 30.5H116v22.002c0 16.542 13.458 30 30 30h219.999c16.542 0 30-13.458 30-30v-22.002H481.5c16.817 0 30.499-13.682 30.499-30.5s-13.682-30.499-30.499-30.499zM47.344 150.438c-1.333-2.301-1.689-4.984-1.005-7.554s2.329-4.719 4.619-6.045l200.052-115.5a9.977 9.977 0 0110.104.071l.12.07L461.03 136.832a9.892 9.892 0 014.63 6.052 9.886 9.886 0 01-1.005 7.554 9.888 9.888 0 01-6.052 4.63 9.891 9.891 0 01-7.565-1.012L261 44.338a9.994 9.994 0 00-10 0L60.962 154.057l-.012.007c-4.752 2.752-10.854 1.125-13.606-3.626zm28.618 18.053L256 64.545 436.037 168.49v230.505h-40.038V235.997H406c5.522 0 10-4.477 10-10s-4.478-10-10-10H300.996c-5.522 0-10 4.477-10 10s4.478 10 10 10h26.733a79.628 79.628 0 017.771 34.31c0 43.837-35.664 79.5-79.5 79.5s-79.5-35.664-79.5-79.5a79.626 79.626 0 017.772-34.31h26.724c5.522 0 10-4.477 10-10s-4.478-10-10-10H105.999c-5.522 0-10 4.477-10 10s4.478 10 10 10H116v162.998H75.962V168.491zM176 379.676c23.016 17.244 50.758 26.561 80 26.561 29.241 0 56.982-9.317 79.999-26.561v33.325c-19.562 3.987-35.008 19.434-38.995 38.995h-82.009c-3.987-19.561-19.434-35.008-38.995-38.995v-33.325zm159.999-26.328c-21.533 21.229-49.836 32.889-79.999 32.889-30.164 0-58.468-11.66-80-32.889v-23.947c18.142 24.496 47.246 40.407 80 40.407 32.753 0 61.857-15.911 79.999-40.406v23.946zM30.5 439.995c-5.79 0-10.5-4.71-10.5-10.5s4.71-10.5 10.5-10.5H116v21H30.5zm345.499 42.002c0 5.514-4.486 10-10 10H146c-5.514 0-10-4.486-10-10v-246h20v185.999c0 5.523 4.478 10 10 10 16.542 0 30 13.458 30 30 0 5.523 4.478 10 10 10h99.999c5.522 0 10-4.477 10-10 0-16.542 13.458-30 30-30 5.522 0 10-4.477 10-10V235.997h20v246zM481.5 439.995h-85.501v-21H481.5c5.789 0 10.499 4.71 10.499 10.5s-4.71 10.5-10.499 10.5z"/><path d="M209.289 270.308H206c-5.522 0-10 4.477-10 10s4.478 10 10 10h5.272a26.76 26.76 0 004.742 6.415c5.037 5.037 11.733 7.811 18.856 7.811s13.819-2.774 18.856-7.811l18.688-18.688c1.259-1.259 2.934-1.953 4.714-1.953s3.455.693 4.714 1.953c1.26 1.259 1.953 2.933 1.953 4.714s-.693 3.455-1.953 4.714c-3.905 3.905-3.905 10.237 0 14.143 1.953 1.953 4.512 2.929 7.071 2.929s5.118-.976 7.071-2.929a26.493 26.493 0 006.711-11.297H306c5.522 0 10-4.477 10-10s-4.478-10-10-10h-5.282a26.577 26.577 0 00-4.733-6.416c-10.397-10.398-27.315-10.396-37.713 0l-18.688 18.688c-1.259 1.259-2.934 1.953-4.714 1.953s-3.455-.693-4.714-1.953a6.618 6.618 0 01-1.953-4.713c0-1.781.693-3.456 1.953-4.715 3.905-3.905 3.905-10.237 0-14.142-3.906-3.905-10.238-3.905-14.143 0a26.525 26.525 0 00-6.724 11.297zM256 235.997c5.522 0 10-4.477 10-10s-4.478-10-10-10h-.008c-5.522 0-9.996 4.477-9.996 10s4.482 10 10.004 10z"/></symbol><symbol viewBox="0 0 512 512" id="serv_shield" xmlns="http://www.w3.org/2000/svg"><path d="M420.527 200h29.082c4.21 12.761 16.238 22 30.391 22 17.645 0 32-14.355 32-32s-14.355-32-32-32c-14.153 0-26.181 9.239-30.391 22h-29.082v-34.686a10 10 0 00-8.597-9.901 317.318 317.318 0 01-31.098-6.012l15.122-27.9H480c5.523 0 10-4.478 10-10v-29.11c12.761-4.21 22-16.238 22-30.391 0-17.645-14.355-32-32-32s-32 14.356-32 32c0 14.153 9.239 26.182 22 30.391V81.5h-80a10 10 0 00-8.792 5.234l-20.13 37.14c-35.626-11.213-69.214-28.642-98.98-51.547a9.996 9.996 0 00-12.197 0c-29.765 22.905-63.353 40.334-98.98 51.547l-20.13-37.14a9.999 9.999 0 00-8.792-5.234H42V62.391C54.761 58.182 64 46.153 64 32 64 14.356 49.645 0 32 0S0 14.356 0 32c0 14.153 9.239 26.182 22 30.391V91.5c0 5.522 4.477 10 10 10h84.046l15.122 27.9a317.375 317.375 0 01-31.098 6.012 10 10 0 00-8.597 9.901V180H62.391c-4.21-12.761-16.238-22-30.391-22-17.645 0-32 14.355-32 32s14.355 32 32 32c14.153 0 26.181-9.239 30.391-22h29.082v54.787c0 19.451 2.775 38.72 8.1 57.213H62.391c-4.21-12.761-16.238-22-30.391-22-17.645 0-32 14.355-32 32s14.355 32 32 32c14.153 0 26.181-9.239 30.391-22h44.054c7.571 18.837 17.904 36.564 30.755 52.478a202.648 202.648 0 005.153 6.119H32c-5.523 0-10 4.477-10 10v49.012C9.239 453.818 0 465.847 0 480c0 17.645 14.355 32 32 32s32-14.355 32-32c0-14.153-9.239-26.182-22-30.391v-39.012h120.463c26.007 22.52 57.505 38.423 91.415 45.786a9.99 9.99 0 004.244 0c33.91-7.363 65.408-23.266 91.415-45.786H470v39.012c-12.761 4.21-22 16.238-22 30.391 0 17.645 14.355 32 32 32s32-14.355 32-32c0-14.153-9.239-26.182-22-30.391v-49.012c0-5.523-4.477-10-10-10H369.647a204.13 204.13 0 005.153-6.119c12.851-15.914 23.184-33.641 30.755-52.478h44.054c4.21 12.761 16.238 22 30.391 22 17.645 0 32-14.355 32-32s-14.355-32-32-32c-14.153 0-26.181 9.239-30.391 22h-37.182c5.325-18.493 8.1-37.762 8.1-57.213V200zM480 178c6.617 0 12 5.383 12 12s-5.383 12-12 12-12-5.383-12-12 5.383-12 12-12zm0-158c6.617 0 12 5.383 12 12s-5.383 12-12 12-12-5.383-12-12 5.383-12 12-12zM32 20c6.617 0 12 5.383 12 12s-5.383 12-12 12-12-5.383-12-12 5.383-12 12-12zm0 182c-6.617 0-12-5.383-12-12s5.383-12 12-12 12 5.383 12 12-5.383 12-12 12zm0 132c-6.617 0-12-5.383-12-12s5.383-12 12-12 12 5.383 12 12-5.383 12-12 12zm0 158c-6.617 0-12-5.383-12-12s5.383-12 12-12 12 5.383 12 12-5.383 12-12 12zm448 0c-6.617 0-12-5.383-12-12s5.383-12 12-12 12 5.383 12 12-5.383 12-12 12zm0-182c6.617 0 12 5.383 12 12s-5.383 12-12 12-12-5.383-12-12 5.383-12 12-12zM256 436.365c-85.205-19.509-144.527-93.866-144.527-181.578V153.883c52.172-8.777 101.828-29.774 144.527-61.121 42.699 31.347 92.354 52.344 144.527 61.121v100.904c0 87.712-59.322 162.069-144.527 181.578z"/><path d="M256 141.044c-63.387 0-114.956 51.569-114.956 114.956 0 44.744 26.271 85.751 66.928 104.47a9.955 9.955 0 004.176.919 10.002 10.002 0 004.189-19.085c-33.589-15.466-55.292-49.342-55.292-86.304 0-52.359 42.597-94.956 94.956-94.956s94.956 42.597 94.956 94.956c0 36.865-21.622 70.703-55.086 86.208-5.011 2.321-7.191 8.266-4.869 13.277 2.321 5.012 8.266 7.192 13.277 4.869 40.505-18.767 66.678-59.728 66.678-104.354-.001-63.387-51.57-114.956-114.957-114.956z"/><path d="M256 181.044c-21.505 0-39 17.495-39 39v5.466c-11.037.059-20 9.052-20 20.103v26.343c0 32.533 26.467 59 59 59s59-26.467 59-59v-26.343c0-11.051-8.963-20.044-20-20.103v-5.466c0-21.505-17.495-39-39-39zm0 20c10.477 0 19 8.523 19 19v5.461h-38v-5.461c0-10.477 8.523-19 19-19zm39 70.912c0 21.505-17.495 39-39 39s-39-17.495-39-39v-26.343c0-.06.048-.108.108-.108h77.784c.06 0 .108.049.108.108v26.343z"/><path d="M256 261.56c-5.523 0-10 4.478-10 10v9.286c0 5.522 4.477 10 10 10s10-4.478 10-10v-9.286c0-5.522-4.477-10-10-10zm0 89.358c-5.523 0-10 4.478-10 10v.038c0 5.522 4.477 9.98 10 9.98s10-4.496 10-10.018-4.477-10-10-10z"/></symbol><symbol viewBox="0 0 512 512" id="telephone" xmlns="http://www.w3.org/2000/svg"><path d="M437.02 74.98C388.668 26.629 324.379 0 256 0S123.332 26.629 74.98 74.98 0 187.621 0 256s26.629 132.668 74.98 181.02S187.621 512 256 512c2.063 0 4.156-.023 6.227-.074 8.285-.203 14.836-7.078 14.633-15.359-.199-8.281-7.066-14.824-15.355-14.633-1.833.043-3.685.066-5.505.066-124.617 0-226-101.383-226-226S131.383 30 256 30s226 101.383 226 226c0 45.492-13.52 89.426-39.094 127.051-4.988 7.34-11.68 11.531-20.457 12.816-8.781 1.289-16.395-.809-23.277-6.402l-11.883-9.66a114.733 114.733 0 004.191-3.535c8.816-7.828 13.203-18.617 12.352-30.379-.855-11.762-6.75-21.805-16.605-28.281l-47.512-31.223c-13.414-8.816-30.832-8.047-43.348 1.91-7.035 5.598-16.754 5.047-23.113-1.309l-48.242-48.246c-6.355-6.355-6.906-16.074-1.309-23.109 9.957-12.516 10.727-29.934 1.91-43.348l-31.223-47.512c-6.477-9.855-16.52-15.754-28.281-16.605-11.766-.855-22.551 3.535-30.379 12.352-38.613 43.48-36.633 109.762 4.5 150.895L240.586 371.77c21.402 21.402 49.609 32.207 77.875 32.203 13.988 0 27.98-2.672 41.176-7.988l20.605 16.758c13.387 10.883 29.488 15.313 46.559 12.813 17.07-2.504 31.219-11.367 40.918-25.637C496.688 357.297 512 307.531 512 256c0-68.379-26.629-132.668-74.98-181.02zM261.801 350.559l-100.356-100.36c-29.926-29.922-31.367-78.133-3.285-109.758 1.457-1.645 3.008-2.375 5.078-2.375.227 0 .461.008.703.023 2.43.176 4.039 1.121 5.379 3.16l31.223 47.512c1.73 2.633 1.609 5.773-.316 8.191-15.012 18.867-13.477 45.953 3.574 63.004l48.238 48.242c17.055 17.051 44.141 18.586 63.008 3.574 2.418-1.926 5.559-2.047 8.191-.316l47.512 31.223c6.063 3.758 3.137 8.832.813 11.16-4.832 4.828-10.652 8.289-16.48 11.289-.094.047-.191.09-.285.141-30.2 15.395-67.985 10.297-92.997-14.71z"/></symbol><symbol viewBox="-149 79 612 588" id="tick" xmlns="http://www.w3.org/2000/svg"><path d="M94.492 509.51L-41.502 373.517c-9.998-9.998-9.998-26.207 0-36.204s26.207-9.998 36.204 0l117.892 117.892 306.705-306.707c9.998-9.998 26.207-9.998 36.204 0s9.998 26.207 0 36.204L130.695 509.51c-9.989 9.99-26.209 9.997-36.203 0z"/><path d="M150.468 664.332c-77.862 0-151.064-30.321-206.122-85.378-55.057-55.058-85.378-128.26-85.378-206.122 0-77.863 30.321-151.065 85.378-206.122C-.597 111.653 72.605 81.332 150.468 81.332c52.128 0 103.291 13.932 147.955 40.29 10.701 6.315 14.258 20.111 7.942 30.813s-20.11 14.259-30.813 7.942c-37.74-22.272-80.994-34.044-125.084-34.044-135.92 0-246.5 110.58-246.5 246.5 0 135.921 110.58 246.5 246.5 246.5 135.921 0 246.5-110.579 246.5-246.5 0-12.426 10.073-22.5 22.5-22.5s22.5 10.074 22.5 22.5c0 77.862-30.321 151.064-85.378 206.122-55.058 55.056-128.26 85.377-206.122 85.377z"/></symbol><symbol viewBox="-149 79 612 588" id="tick-color" xmlns="http://www.w3.org/2000/svg"><path d="M94.492 509.51L-41.502 373.517c-9.998-9.998-9.998-26.207 0-36.204s26.207-9.998 36.204 0l117.892 117.892 306.705-306.707c9.998-9.998 26.207-9.998 36.204 0s9.998 26.207 0 36.204L130.695 509.51c-9.989 9.99-26.209 9.997-36.203 0z"/><path d="M150.468 664.332c-77.862 0-151.064-30.321-206.122-85.378-55.057-55.058-85.378-128.26-85.378-206.122 0-77.863 30.321-151.065 85.378-206.122C-.597 111.653 72.605 81.332 150.468 81.332c52.128 0 103.291 13.932 147.955 40.29 10.701 6.315 14.258 20.111 7.942 30.813s-20.11 14.259-30.813 7.942c-37.74-22.272-80.994-34.044-125.084-34.044-135.92 0-246.5 110.58-246.5 246.5 0 135.921 110.58 246.5 246.5 246.5 135.921 0 246.5-110.579 246.5-246.5 0-12.426 10.073-22.5 22.5-22.5s22.5 10.074 22.5 22.5c0 77.862-30.321 151.064-85.378 206.122-55.058 55.056-128.26 85.377-206.122 85.377z"/></symbol><symbol class="ysvg-inline--fa yfa-twitter yfa-w-16" viewBox="0 0 512 512" id="twitter" xmlns="http://www.w3.org/2000/svg"><path d="M459.37 151.716c.325 4.548.325 9.097.325 13.645 0 138.72-105.583 298.558-298.558 298.558-59.452 0-114.68-17.219-161.137-47.106 8.447.974 16.568 1.299 25.34 1.299 49.055 0 94.213-16.568 130.274-44.832-46.132-.975-84.792-31.188-98.112-72.772 6.498.974 12.995 1.624 19.818 1.624 9.421 0 18.843-1.3 27.614-3.573-48.081-9.747-84.143-51.98-84.143-102.985v-1.299c13.969 7.797 30.214 12.67 47.431 13.319-28.264-18.843-46.781-51.005-46.781-87.391 0-19.492 5.197-37.36 14.294-52.954 51.655 63.675 129.3 105.258 216.365 109.807-1.624-7.797-2.599-15.918-2.599-24.04 0-57.828 46.782-104.934 104.934-104.934 30.213 0 57.502 12.67 76.67 33.137 23.715-4.548 46.456-13.32 66.599-25.34-7.798 24.366-24.366 44.833-46.132 57.827 21.117-2.273 41.584-8.122 60.426-16.243-14.292 20.791-32.161 39.308-52.628 54.253z"/></symbol><symbol viewBox="0 0 50 50" id="whatsapp" xmlns="http://www.w3.org/2000/svg"><path d="M19.102 15.022c-.479-1.137-.966-.983-1.329-1.001A25.177 25.177 0 0016.642 14c-.394 0-1.033.146-1.575.73S13 16.724 13 19.594s2.116 5.641 2.411 6.031c.296.389 4.164 6.278 10.087 8.804 1.409.6 2.509.959 3.366 1.228 1.414.444 2.702.381 3.72.231 1.134-.167 3.494-1.411 3.986-2.772.492-1.362.492-2.529.344-2.772-.148-.243-.542-.389-1.132-.681-.59-.292-3.494-1.703-4.036-1.896-.542-.195-.935-.292-1.329.292-.394.584-1.525 1.896-1.869 2.286-.344.389-.689.438-1.279.146-.59-.292-2.494-.907-4.748-2.894-1.756-1.546-2.941-3.455-3.285-4.039s-.037-.899.259-1.19c.266-.262.59-.681.886-1.022.296-.341.394-.584.59-.973s.098-.73-.05-1.022c-.146-.292-1.327-3.161-1.819-4.329z"/><path d="M25 3C12.85 3 3 12.85 3 25a21.89 21.89 0 003.04 11.155L3 47l11.274-2.793A21.896 21.896 0 0025 47c12.15 0 22-9.85 22-22S37.15 3 25 3z"/></symbol></svg>